<svg xmlns="http://www.w3.org/2000/svg" width="114.299" height="132.9" viewBox="0 0 114.299 132.9">
  <g id="plant" transform="translate(-36.824 1)">
    <path id="Path_5" data-name="Path 5" d="M147.882,41.317,145.1,27.434l-7.734,3.1c-6.786,2.716-14.023,5.261-21.561,7.582a104.384,104.384,0,0,0-14.987-26.823L92.279,0,86.664,6.155A303.931,303.931,0,0,1,55.787,35.308,55.5,55.5,0,0,0,37.179,65.76a54.647,54.647,0,0,0,4.181,36.081L56.38,132.9H72.808c14.361,0,27.064-2.2,37.755-6.546A61.759,61.759,0,0,0,135.5,108.368c13.373-16.313,17.771-40.126,12.384-67.05Zm-13.257-1.381a190.292,190.292,0,0,1-19.132,30.553,244.166,244.166,0,0,1-26.982,29.77,260.553,260.553,0,0,1-25.8,21.346V96.949A46.932,46.932,0,0,1,72.972,67.487,47.669,47.669,0,0,1,98.747,50.893c4.1-1.012,8.13-2.077,12.028-3.178l.007.021,3.56-1.049.1-.03h0c6.986-2.061,13.747-4.315,20.183-6.721ZM44.778,67.463A47.67,47.67,0,0,1,60.758,41.3,313.188,313.188,0,0,0,91.719,12.164l2.895,3.825a97.019,97.019,0,0,1,13.705,24.328c-3.709,1.044-7.54,2.055-11.438,3.016A55.5,55.5,0,0,0,66.873,62.646a54.645,54.645,0,0,0-11.944,34.3v15.063L48.371,98.451A46.933,46.933,0,0,1,44.778,67.463Zm84.7,35.968a54.061,54.061,0,0,1-21.842,15.709c-9.757,3.964-21.474,5.973-34.825,5.973h-1.7a272.214,272.214,0,0,0,22.6-19.053A252.126,252.126,0,0,0,121.619,75.3a199.53,199.53,0,0,0,19.074-30.092C144.912,68.814,140.96,89.421,129.475,103.431Z" transform="translate(1 -1)" fill="#ff2323"/>
  </g>
</svg>
